<?xml version="1.0" standalone="no"?>
<!DOCTYPE svg PUBLIC "-//W3C//DTD SVG 20010904//EN"
 "http://www.w3.org/TR/2001/REC-SVG-20010904/DTD/svg10.dtd">
<svg version="1.0" xmlns="http://www.w3.org/2000/svg"
 width="50.000000pt" height="50.000000pt" viewBox="0 0 50.000000 50.000000"
 preserveAspectRatio="xMidYMid meet">

<g transform="translate(0.000000,50.000000) scale(0.100000,-0.100000)"
fill="#000000" stroke="none">
<path d="M130 389 c-109 -86 -143 -120 -106 -106 14 6 16 -8 16 -128 l0 -135
210 0 210 0 0 135 c0 120 2 134 16 128 38 -14 3 21 -106 106 -63 50 -117 91
-120 91 -3 0 -57 -41 -120 -91z m57 -129 c-3 -34 -14 -75 -26 -95 -20 -34 -20
-35 -1 -35 11 0 20 -4 20 -10 0 -5 -18 -10 -40 -10 l-40 0 0 40 c0 22 5 40 10
40 6 0 10 -12 10 -27 1 -27 2 -27 21 11 12 21 23 63 26 92 3 30 10 54 16 54 6
0 8 -23 4 -60z m73 -31 c0 -81 2 -90 15 -79 28 23 29 0 2 -28 l-27 -27 -27 27
c-27 28 -26 51 2 28 13 -11 15 -2 15 79 0 54 4 91 10 91 6 0 10 -37 10 -91z
m73 37 c3 -29 14 -71 26 -92 19 -38 20 -38 21 -11 0 15 5 27 10 27 6 0 10 -18
10 -40 l0 -40 -40 0 c-22 0 -40 5 -40 10 0 6 9 10 20 10 19 0 19 1 -1 35 -23
38 -39 155 -22 155 6 0 13 -24 16 -54z"/>
</g>
</svg>
