<?xml version="1.0" standalone="no"?>
<!DOCTYPE svg PUBLIC "-//W3C//DTD SVG 20010904//EN"
 "http://www.w3.org/TR/2001/REC-SVG-20010904/DTD/svg10.dtd">
<svg version="1.0" xmlns="http://www.w3.org/2000/svg"
 width="80.000000pt" height="80.000000pt" viewBox="0 0 80.000000 80.000000"
 preserveAspectRatio="xMidYMid meet">

<g transform="translate(0.000000,80.000000) scale(0.100000,-0.100000)"
fill="#000000" stroke="none">
<path d="M294 655 c-4 -8 -12 -15 -19 -15 -25 0 -74 -50 -86 -88 -6 -20 -15
-41 -20 -46 -12 -14 -11 -56 1 -56 6 0 10 -13 10 -28 0 -16 9 -39 20 -52 11
-13 20 -29 20 -35 0 -7 7 -18 15 -25 18 -15 20 -49 3 -54 -117 -36 -158 -68
-158 -121 l0 -35 241 0 241 0 -4 40 -4 40 83 0 83 0 0 28 c0 35 -29 64 -92 92
l-47 21 34 58 c19 33 35 66 35 75 0 9 5 16 10 16 16 0 12 33 -10 74 -23 46
-58 86 -76 86 -6 0 -14 7 -18 15 -7 19 -45 20 -52 1 -3 -8 -14 -16 -25 -19
-10 -3 -19 -11 -19 -17 0 -7 7 -10 16 -6 9 3 22 6 30 6 8 0 14 7 14 15 0 8 5
15 10 15 6 0 10 -6 10 -14 0 -7 13 -16 30 -19 29 -6 67 -57 52 -71 -4 -4 1
-12 11 -17 34 -19 16 -29 -53 -29 -40 0 -70 -4 -70 -10 0 -5 20 -10 45 -10 39
0 45 -3 45 -21 0 -11 5 -17 10 -14 6 3 10 1 10 -4 0 -6 -4 -11 -10 -11 -5 0
-10 -9 -10 -19 0 -10 -8 -29 -19 -42 -15 -18 -28 -23 -60 -22 -37 2 -41 0 -41
-22 0 -35 33 -50 79 -35 41 13 81 3 119 -32 41 -39 30 -48 -60 -48 -68 0 -92
5 -133 25 -27 13 -58 25 -68 25 -23 0 -33 28 -19 49 7 9 17 26 22 39 6 13 17
30 25 38 8 9 15 29 15 45 0 16 5 29 10 29 12 0 13 42 1 56 -5 5 -14 26 -20 46
-12 38 -61 88 -86 88 -7 0 -15 7 -19 15 -3 8 -15 15 -26 15 -11 0 -23 -7 -26
-15z m36 -20 c0 -9 9 -15 23 -15 33 0 80 -53 80 -89 0 -17 6 -32 14 -35 7 -3
13 -10 13 -16 0 -6 -50 -10 -140 -10 -90 0 -140 4 -140 10 0 6 6 13 13 16 8 3
14 18 14 35 0 36 47 89 80 89 14 0 23 6 23 15 0 8 5 15 10 15 6 0 10 -7 10
-15z m80 -205 c0 -13 5 -18 15 -14 9 4 15 0 15 -10 0 -9 -7 -16 -15 -16 -8 0
-15 -7 -15 -15 0 -31 -30 -73 -60 -83 -56 -20 -120 24 -120 83 0 8 -7 15 -15
15 -8 0 -15 7 -15 16 0 10 6 14 15 10 10 -4 15 1 15 14 0 18 7 20 90 20 83 0
90 -2 90 -20z m147 -125 c-2 -5 -14 -10 -27 -10 -13 0 -25 5 -27 10 -1 6 11
10 27 10 17 0 29 -4 27 -10z m-212 -37 c22 10 25 9 25 -6 0 -25 -20 -42 -50
-42 -30 0 -50 17 -50 42 0 15 3 16 25 6 19 -8 31 -8 50 0z m-23 -68 c22 0 41
7 53 20 17 19 18 19 67 0 73 -28 98 -47 98 -75 l0 -25 -220 0 -220 0 0 24 c0
30 15 42 87 71 57 24 58 24 79 4 12 -11 34 -19 56 -19z"/>
<path d="M290 590 c0 -5 5 -10 10 -10 6 0 10 5 10 10 0 6 -4 10 -10 10 -5 0
-10 -4 -10 -10z"/>
<path d="M330 590 c0 -5 5 -10 10 -10 6 0 10 5 10 10 0 6 -4 10 -10 10 -5 0
-10 -4 -10 -10z"/>
<path d="M290 550 c0 -5 5 -10 10 -10 6 0 10 5 10 10 0 6 -4 10 -10 10 -5 0
-10 -4 -10 -10z"/>
<path d="M330 550 c0 -5 5 -10 10 -10 6 0 10 5 10 10 0 6 -4 10 -10 10 -5 0
-10 -4 -10 -10z"/>
<path d="M230 510 c0 -5 5 -10 10 -10 6 0 10 5 10 10 0 6 -4 10 -10 10 -5 0
-10 -4 -10 -10z"/>
<path d="M390 510 c0 -5 5 -10 10 -10 6 0 10 5 10 10 0 6 -4 10 -10 10 -5 0
-10 -4 -10 -10z"/>
<path d="M260 405 c0 -8 7 -15 15 -15 8 0 15 7 15 15 0 8 -7 15 -15 15 -8 0
-15 -7 -15 -15z"/>
<path d="M350 405 c0 -8 7 -15 15 -15 8 0 15 7 15 15 0 8 -7 15 -15 15 -8 0
-15 -7 -15 -15z"/>
<path d="M130 150 c0 -5 5 -10 10 -10 6 0 10 5 10 10 0 6 -4 10 -10 10 -5 0
-10 -4 -10 -10z"/>
<path d="M170 150 c0 -5 5 -10 10 -10 6 0 10 5 10 10 0 6 -4 10 -10 10 -5 0
-10 -4 -10 -10z"/>
<path d="M210 150 c0 -5 5 -10 10 -10 6 0 10 5 10 10 0 6 -4 10 -10 10 -5 0
-10 -4 -10 -10z"/>
<path d="M250 150 c0 -5 5 -10 10 -10 6 0 10 5 10 10 0 6 -4 10 -10 10 -5 0
-10 -4 -10 -10z"/>
<path d="M290 150 c0 -5 5 -10 10 -10 6 0 10 5 10 10 0 6 -4 10 -10 10 -5 0
-10 -4 -10 -10z"/>
<path d="M330 150 c0 -5 5 -10 10 -10 6 0 10 5 10 10 0 6 -4 10 -10 10 -5 0
-10 -4 -10 -10z"/>
<path d="M370 150 c0 -5 5 -10 10 -10 6 0 10 5 10 10 0 6 -4 10 -10 10 -5 0
-10 -4 -10 -10z"/>
<path d="M410 150 c0 -5 5 -10 10 -10 6 0 10 5 10 10 0 6 -4 10 -10 10 -5 0
-10 -4 -10 -10z"/>
<path d="M450 150 c0 -5 5 -10 10 -10 6 0 10 5 10 10 0 6 -4 10 -10 10 -5 0
-10 -4 -10 -10z"/>
<path d="M490 150 c0 -5 5 -10 10 -10 6 0 10 5 10 10 0 6 -4 10 -10 10 -5 0
-10 -4 -10 -10z"/>
<path d="M500 580 c0 -5 5 -10 10 -10 6 0 10 5 10 10 0 6 -4 10 -10 10 -5 0
-10 -4 -10 -10z"/>
<path d="M540 580 c0 -5 5 -10 10 -10 6 0 10 5 10 10 0 6 -4 10 -10 10 -5 0
-10 -4 -10 -10z"/>
<path d="M580 530 c0 -5 5 -10 10 -10 6 0 10 5 10 10 0 6 -4 10 -10 10 -5 0
-10 -4 -10 -10z"/>
<path d="M550 435 c0 -8 7 -15 15 -15 8 0 15 7 15 15 0 8 -7 15 -15 15 -8 0
-15 -7 -15 -15z"/>
<path d="M520 230 c0 -5 5 -10 10 -10 6 0 10 5 10 10 0 6 -4 10 -10 10 -5 0
-10 -4 -10 -10z"/>
<path d="M560 230 c0 -5 5 -10 10 -10 6 0 10 5 10 10 0 6 -4 10 -10 10 -5 0
-10 -4 -10 -10z"/>
<path d="M600 230 c0 -5 5 -10 10 -10 6 0 10 5 10 10 0 6 -4 10 -10 10 -5 0
-10 -4 -10 -10z"/>
<path d="M640 230 c0 -5 5 -10 10 -10 6 0 10 5 10 10 0 6 -4 10 -10 10 -5 0
-10 -4 -10 -10z"/>
</g>
</svg>
