<?xml version="1.0" standalone="no"?>
<!DOCTYPE svg PUBLIC "-//W3C//DTD SVG 20010904//EN"
 "http://www.w3.org/TR/2001/REC-SVG-20010904/DTD/svg10.dtd">
<svg version="1.0" xmlns="http://www.w3.org/2000/svg"
 width="50.000000pt" height="50.000000pt" viewBox="0 0 50.000000 50.000000"
 preserveAspectRatio="xMidYMid meet">

<g transform="translate(0.000000,50.000000) scale(0.100000,-0.100000)"
fill="#000000" stroke="none">
<path d="M0 492 c0 -14 489 -496 496 -489 4 4 -9 24 -29 45 l-37 38 0 102 c0
56 -4 102 -8 102 -21 0 -42 -28 -50 -65 -10 -51 -38 -60 -53 -16 -7 19 -18 31
-29 31 -10 0 -23 7 -30 15 -11 13 -8 15 17 15 42 0 128 27 143 45 32 39 -21
133 -95 166 -70 32 -149 18 -206 -36 l-25 -25 -39 40 c-37 38 -55 49 -55 32z
m313 -26 c31 -13 87 -68 87 -86 0 -4 -21 -2 -47 6 -53 16 -143 18 -190 5 -48
-14 -61 8 -25 42 49 47 114 59 175 33z"/>
<path d="M70 345 c0 -27 28 -50 75 -61 l30 -7 -45 47 c-24 25 -48 46 -52 46
-4 0 -8 -11 -8 -25z"/>
<path d="M70 180 c0 -106 1 -112 26 -135 52 -48 199 -58 277 -18 l37 18 -70
70 -70 69 0 -37 c0 -24 -5 -40 -15 -43 -27 -11 -45 16 -45 65 0 60 -11 77 -38
62 -31 -17 -41 -14 -48 14 -5 22 -30 45 -48 45 -3 0 -6 -50 -6 -110z"/>
</g>
</svg>
