<?xml version="1.0" standalone="no"?>
<!DOCTYPE svg PUBLIC "-//W3C//DTD SVG 20010904//EN"
 "http://www.w3.org/TR/2001/REC-SVG-20010904/DTD/svg10.dtd">
<svg version="1.0" xmlns="http://www.w3.org/2000/svg"
 width="50.000000pt" height="50.000000pt" viewBox="0 0 50.000000 50.000000"
 preserveAspectRatio="xMidYMid meet">

<g transform="translate(0.000000,50.000000) scale(0.100000,-0.100000)"
fill="#000000" stroke="none">
<path d="M150 407 c-31 -11 -38 -21 -67 -92 -29 -69 -33 -90 -30 -155 l2 -75
43 -3 c37 -3 44 0 49 17 5 19 13 21 103 21 90 0 98 -2 103 -21 5 -17 12 -20
49 -17 l43 3 2 75 c3 65 -1 86 -30 155 -29 71 -36 81 -67 92 -19 7 -64 12
-100 12 -36 0 -81 -5 -100 -12z m189 -18 c32 -11 61 -59 61 -100 0 -18 -10
-19 -150 -19 -140 0 -150 1 -150 19 0 38 29 89 57 99 38 14 143 14 182 1z
m-164 -189 c0 -32 -33 -38 -65 -12 -31 25 -18 44 28 40 32 -3 37 -6 37 -28z
m231 18 c9 -14 -31 -48 -57 -48 -22 0 -34 22 -25 45 7 18 71 21 82 3z"/>
<path d="M20 295 c-13 -16 -7 -45 9 -45 5 0 14 14 20 30 8 24 7 30 -3 30 -8 0
-19 -7 -26 -15z"/>
<path d="M451 280 c12 -33 26 -39 35 -15 7 18 -12 45 -32 45 -10 0 -11 -6 -3
-30z"/>
</g>
</svg>
