<?xml version="1.0" standalone="no"?>
<!DOCTYPE svg PUBLIC "-//W3C//DTD SVG 20010904//EN"
 "http://www.w3.org/TR/2001/REC-SVG-20010904/DTD/svg10.dtd">
<svg version="1.0" xmlns="http://www.w3.org/2000/svg"
 width="64.000000pt" height="64.000000pt" viewBox="0 0 64.000000 64.000000"
 preserveAspectRatio="xMidYMid meet">

<g transform="translate(0.000000,64.000000) scale(0.100000,-0.100000)"
fill="#000000" stroke="none">
<path d="M244 621 c-47 -22 -80 -59 -95 -110 -6 -22 -9 -112 -7 -233 3 -224 9
-240 86 -268 37 -13 47 -13 84 0 78 28 83 43 86 276 l3 204 -25 25 c-33 33
-79 33 -111 0 -25 -24 -25 -26 -25 -210 l0 -185 30 0 30 0 2 178 c3 149 5 177
18 177 13 0 15 -28 18 -184 2 -178 2 -185 -20 -208 -28 -30 -68 -30 -97 1 -22
23 -22 28 -19 225 l3 201 33 32 c28 28 39 33 82 33 43 0 54 -5 82 -33 l33 -32
3 -195 3 -195 30 0 29 0 0 188 c0 237 -14 276 -113 317 -48 20 -93 19 -143 -4z
m140 -15 c18 -8 46 -31 62 -52 l29 -37 3 -189 c2 -128 0 -188 -7 -188 -7 0
-11 59 -11 178 0 198 -7 222 -72 262 -64 39 -146 16 -188 -52 -18 -30 -20 -51
-20 -231 l0 -199 29 -29 c40 -39 82 -39 122 0 l29 30 -2 192 c-3 170 -5 193
-20 203 -13 8 -23 8 -35 0 -16 -10 -18 -32 -21 -183 -1 -103 -6 -171 -12 -171
-6 0 -10 66 -10 170 0 157 2 172 20 190 11 11 29 20 40 20 11 0 29 -9 40 -20
19 -19 20 -33 20 -205 0 -147 -3 -192 -15 -215 -17 -32 -61 -60 -95 -60 -34 0
-78 28 -95 60 -12 23 -15 69 -15 219 0 110 4 202 11 218 32 84 128 125 213 89z"/>
</g>
</svg>
