<?xml version="1.0" standalone="no"?>
<!DOCTYPE svg PUBLIC "-//W3C//DTD SVG 20010904//EN"
 "http://www.w3.org/TR/2001/REC-SVG-20010904/DTD/svg10.dtd">
<svg version="1.0" xmlns="http://www.w3.org/2000/svg"
 width="80.000000pt" height="80.000000pt" viewBox="0 0 80.000000 80.000000"
 preserveAspectRatio="xMidYMid meet">

<g transform="translate(0.000000,80.000000) scale(0.100000,-0.100000)"
fill="#000000" stroke="none">
<path d="M371 738 c-6 -7 -29 -13 -49 -13 -29 0 -39 -5 -47 -22 -6 -13 -19
-23 -30 -23 -27 0 -45 -18 -45 -45 0 -11 -10 -24 -22 -30 -18 -8 -23 -18 -23
-47 0 -20 -6 -43 -12 -49 -16 -16 -16 -42 0 -58 6 -6 12 -29 12 -49 0 -29 5
-39 23 -47 15 -7 22 -18 22 -37 0 -16 8 -33 19 -40 18 -11 18 -14 -10 -79 -16
-37 -29 -71 -29 -75 0 -4 23 -4 50 0 28 4 50 3 50 -1 0 -4 13 -23 29 -42 l28
-34 29 72 c16 39 31 71 34 71 3 0 18 -32 34 -71 l29 -72 28 34 c16 19 29 38
29 42 0 4 23 5 50 1 28 -4 50 -3 50 1 0 3 -14 38 -31 77 l-31 70 21 19 c12 11
21 28 21 37 0 9 10 22 23 27 17 8 22 18 22 47 0 20 6 43 13 49 6 7 12 20 12
29 0 9 -6 22 -12 29 -7 6 -13 29 -13 49 0 29 -5 39 -22 47 -13 6 -23 19 -23
30 0 27 -18 45 -45 45 -11 0 -24 10 -30 23 -8 17 -18 22 -47 22 -20 0 -43 6
-49 13 -7 6 -20 12 -29 12 -9 0 -22 -6 -29 -12z m50 -24 c9 -11 22 -14 46 -9
28 5 35 3 44 -19 7 -16 21 -26 38 -28 20 -2 27 -9 29 -29 2 -17 12 -31 28 -38
22 -10 25 -16 19 -42 -5 -22 -2 -36 11 -50 16 -18 16 -20 0 -38 -13 -14 -16
-28 -11 -50 6 -26 3 -32 -19 -42 -16 -7 -26 -21 -28 -38 -2 -20 -9 -27 -29
-29 -17 -2 -31 -12 -38 -28 -10 -22 -16 -25 -42 -19 -22 5 -36 2 -50 -11 -18
-16 -20 -16 -38 0 -14 13 -28 16 -50 11 -23 -5 -32 -2 -40 14 -6 11 -23 21
-38 23 -23 2 -29 9 -31 34 -2 22 -11 35 -28 43 -22 10 -25 16 -19 42 5 22 2
36 -11 50 -16 18 -16 20 0 38 13 14 16 28 11 50 -6 26 -3 32 19 42 16 7 26 21
28 38 2 20 9 27 29 29 17 2 31 12 38 28 9 22 16 24 44 19 24 -5 37 -2 46 9 8
9 17 16 21 16 4 0 13 -7 21 -16z m-94 -482 c53 5 60 -15 28 -86 l-26 -60 -21
33 c-20 30 -25 33 -60 28 -44 -6 -44 -5 -6 80 19 44 20 45 35 23 12 -16 23
-21 50 -18z m257 -69 c6 -20 4 -21 -32 -16 -35 5 -40 2 -60 -28 l-21 -33 -26
60 c-32 71 -25 91 28 86 28 -3 39 1 49 17 12 20 14 19 34 -22 12 -23 24 -52
28 -64z"/>
<path d="M400 660 c0 -5 5 -10 10 -10 6 0 10 5 10 10 0 6 -4 10 -10 10 -5 0
-10 -4 -10 -10z"/>
<path d="M315 640 c3 -5 8 -10 11 -10 2 0 4 5 4 10 0 6 -5 10 -11 10 -5 0 -7
-4 -4 -10z"/>
<path d="M550 570 c0 -5 5 -10 11 -10 5 0 7 5 4 10 -3 6 -8 10 -11 10 -2 0 -4
-4 -4 -10z"/>
<path d="M433 498 l-63 -62 -35 34 c-27 27 -38 31 -47 22 -10 -10 -2 -22 35
-59 l47 -48 75 75 c41 41 74 79 72 84 -8 23 -26 13 -84 -46z"/>
<path d="M215 500 c3 -5 8 -10 11 -10 2 0 4 5 4 10 0 6 -5 10 -11 10 -5 0 -7
-4 -4 -10z"/>
<path d="M570 480 c0 -5 5 -10 10 -10 6 0 10 5 10 10 0 6 -4 10 -10 10 -5 0
-10 -4 -10 -10z"/>
<path d="M215 460 c-3 -5 -1 -10 4 -10 6 0 11 5 11 10 0 6 -2 10 -4 10 -3 0
-8 -4 -11 -10z"/>
<path d="M550 389 c0 -5 5 -7 10 -4 6 3 10 8 10 11 0 2 -4 4 -10 4 -5 0 -10
-5 -10 -11z"/>
<path d="M400 300 c0 -5 5 -10 10 -10 6 0 10 5 10 10 0 6 -4 10 -10 10 -5 0
-10 -4 -10 -10z"/>
</g>
</svg>
