<?xml version="1.0" standalone="no"?>
<!DOCTYPE svg PUBLIC "-//W3C//DTD SVG 20010904//EN"
 "http://www.w3.org/TR/2001/REC-SVG-20010904/DTD/svg10.dtd">
<svg version="1.0" xmlns="http://www.w3.org/2000/svg"
 width="100.000000pt" height="100.000000pt" viewBox="0 0 100.000000 100.000000"
 preserveAspectRatio="xMidYMid meet">

<g transform="translate(0.000000,100.000000) scale(0.100000,-0.100000)"
fill="#000000" stroke="none">
<path d="M415 761 c-365 -94 -344 -87 -351 -115 -3 -12 9 -78 26 -147 47 -188
58 -218 84 -225 18 -4 154 24 247 52 14 4 15 -3 12 -43 -14 -151 190 -208 259
-72 25 47 22 90 -7 134 -34 49 -26 54 17 11 19 -19 47 -38 61 -42 99 -24 197
75 172 173 -3 16 -26 46 -49 68 -37 34 -45 50 -61 115 -35 145 -48 170 -90
169 -11 0 -155 -35 -320 -78z m378 -55 c16 -59 26 -110 23 -113 -15 -16 -34
12 -46 67 -8 39 -19 64 -29 67 -9 4 -24 13 -33 21 -15 13 -39 9 -212 -34 -107
-27 -193 -50 -191 -52 2 -3 90 17 196 43 119 30 193 44 198 38 3 -6 16 -15 27
-21 15 -8 26 -30 37 -72 l15 -61 -32 -13 c-36 -15 -73 -57 -82 -92 -5 -20 -28
-28 -216 -74 -131 -33 -212 -49 -217 -43 -3 6 -16 15 -27 21 -30 16 -69 169
-50 192 7 8 16 23 19 33 4 9 16 17 28 17 12 0 20 3 16 6 -13 13 -57 -7 -57
-26 0 -10 -7 -23 -15 -28 -14 -7 -13 -19 7 -101 17 -71 28 -95 43 -102 11 -5
27 -14 35 -20 11 -8 65 2 217 40 111 28 205 51 208 51 4 0 5 -10 3 -22 -3 -21
-7 -23 -63 -20 -52 3 -65 0 -100 -24 -41 -28 -296 -100 -320 -90 -16 6 -100
345 -89 356 12 12 634 169 659 167 17 -2 25 -20 48 -111z m91 -175 c26 -27 31
-39 31 -81 0 -43 -5 -54 -33 -82 -28 -28 -39 -33 -82 -33 -43 0 -54 5 -82 33
-28 28 -33 39 -33 81 0 52 25 92 70 112 37 16 96 3 129 -30z m-230 -180 c26
-27 31 -39 31 -81 0 -43 -5 -54 -33 -82 -28 -28 -39 -33 -82 -33 -43 0 -54 5
-82 33 -28 28 -33 39 -33 81 0 52 25 92 70 112 37 16 96 3 129 -30z"/>
<path d="M409 611 c-20 -20 -29 -39 -29 -61 0 -43 47 -90 90 -90 43 0 90 47
90 90 0 43 -47 90 -90 90 -22 0 -41 -9 -61 -29z m116 -6 c16 -15 25 -36 25
-55 0 -19 -9 -40 -25 -55 -15 -16 -36 -25 -55 -25 -19 0 -40 9 -55 25 -16 15
-25 36 -25 55 0 19 9 40 25 55 15 16 36 25 55 25 19 0 40 -9 55 -25z"/>
<path d="M600 616 c-27 -33 18 -72 48 -42 13 13 14 20 6 34 -15 23 -38 26 -54
8z m48 -19 c4 -20 -25 -34 -40 -19 -15 15 -1 44 19 40 10 -2 19 -11 21 -21z"/>
<path d="M280 536 c-27 -33 18 -72 48 -42 13 13 14 20 6 34 -15 23 -38 26 -54
8z m48 -19 c4 -20 -25 -34 -40 -19 -15 15 -1 44 19 40 10 -2 19 -11 21 -21z"/>
<path d="M739 511 c-20 -20 -29 -39 -29 -61 0 -43 47 -90 90 -90 43 0 90 47
90 90 0 43 -47 90 -90 90 -22 0 -41 -9 -61 -29z m116 -6 c50 -49 15 -135 -55
-135 -41 0 -80 39 -80 80 0 41 39 80 80 80 19 0 40 -9 55 -25z"/>
<path d="M509 331 c-20 -20 -29 -39 -29 -61 0 -43 47 -90 90 -90 43 0 90 47
90 90 0 43 -47 90 -90 90 -22 0 -41 -9 -61 -29z m116 -6 c50 -49 15 -135 -55
-135 -41 0 -80 39 -80 80 0 41 39 80 80 80 19 0 40 -9 55 -25z"/>
</g>
</svg>
