<?xml version="1.0" standalone="no"?>
<!DOCTYPE svg PUBLIC "-//W3C//DTD SVG 20010904//EN"
 "http://www.w3.org/TR/2001/REC-SVG-20010904/DTD/svg10.dtd">
<svg version="1.0" xmlns="http://www.w3.org/2000/svg"
 width="50.000000pt" height="50.000000pt" viewBox="0 0 50.000000 50.000000"
 preserveAspectRatio="xMidYMid meet">

<g transform="translate(0.000000,50.000000) scale(0.100000,-0.100000)"
fill="#000000" stroke="none">
<path d="M214 450 c-56 -22 -73 -124 -34 -200 11 -22 20 -46 20 -55 0 -9 9
-28 21 -44 14 -20 18 -35 14 -54 -10 -39 -21 -33 -35 20 -17 62 -35 82 -27 30
3 -20 2 -37 -4 -37 -15 0 -10 -23 11 -48 16 -20 27 -23 75 -20 50 3 58 6 73
32 12 20 14 30 5 33 -7 3 -10 17 -6 41 8 51 -10 30 -27 -30 -14 -54 -25 -60
-35 -21 -4 19 0 34 14 54 12 16 21 34 21 40 0 21 24 79 32 79 13 0 9 125 -4
141 -17 21 -64 49 -80 48 -7 0 -23 -4 -34 -9z"/>
<path d="M114 141 c-37 -22 -64 -58 -64 -83 0 -15 9 -18 61 -18 l60 0 -21 30
c-17 24 -19 34 -10 45 6 8 10 21 8 30 -3 13 -7 12 -34 -4z"/>
<path d="M348 141 c-2 -9 3 -21 11 -27 12 -10 11 -16 -8 -43 l-22 -31 60 0
c54 0 61 2 61 20 0 10 -14 35 -30 53 -35 40 -67 53 -72 28z"/>
</g>
</svg>
