<?xml version="1.0" standalone="no"?>
<!DOCTYPE svg PUBLIC "-//W3C//DTD SVG 20010904//EN"
 "http://www.w3.org/TR/2001/REC-SVG-20010904/DTD/svg10.dtd">
<svg version="1.0" xmlns="http://www.w3.org/2000/svg"
 width="50.000000pt" height="50.000000pt" viewBox="0 0 50.000000 50.000000"
 preserveAspectRatio="xMidYMid meet">

<g transform="translate(0.000000,50.000000) scale(0.100000,-0.100000)"
fill="#000000" stroke="none">
<path d="M205 440 c8 -47 -2 -53 -16 -10 -12 34 -19 36 -58 16 -49 -26 -53
-39 -20 -61 28 -20 38 -35 20 -35 -4 0 -20 9 -34 20 -14 11 -27 20 -30 20 -5
0 -47 -94 -47 -104 0 -3 20 -6 45 -6 25 0 45 -4 45 -10 0 -5 -20 -10 -45 -10
-42 0 -45 -2 -45 -27 0 -35 34 -110 63 -142 33 -36 115 -71 167 -71 52 0 134
35 167 71 29 32 63 107 63 142 0 25 -3 27 -45 27 -25 0 -45 5 -45 10 0 6 20
10 44 10 44 0 44 0 36 28 -4 15 -13 39 -20 54 l-13 28 -32 -20 c-35 -22 -45
-24 -45 -12 0 4 14 16 31 26 25 15 28 20 18 33 -14 16 -62 43 -78 43 -5 0 -14
-13 -20 -30 -14 -43 -24 -37 -16 10 l7 40 -52 0 -52 0 7 -40z m141 -144 c-11
-6 -34 -23 -51 -38 -18 -16 -39 -28 -47 -28 -31 0 -50 44 -28 66 6 6 41 11 78
11 55 1 63 -1 48 -11z m-146 -106 c0 -5 -13 -10 -30 -10 -16 0 -30 5 -30 10 0
6 14 10 30 10 17 0 30 -4 30 -10z m84 0 c32 -12 66 -46 66 -65 0 -9 -11 -20
-25 -25 -15 -6 -25 -17 -25 -30 0 -17 -6 -20 -45 -20 -33 0 -50 5 -62 20 -10
11 -23 20 -30 20 -23 0 -14 18 21 39 18 12 47 21 65 21 17 0 31 5 31 10 0 6
-13 10 -30 10 -20 0 -30 5 -30 15 0 17 27 19 64 5z m-114 -40 c0 -5 -13 -10
-30 -10 -16 0 -30 5 -30 10 0 6 14 10 30 10 17 0 30 -4 30 -10z"/>
<path d="M234 279 c-10 -17 13 -36 27 -22 12 12 4 33 -11 33 -5 0 -12 -5 -16
-11z"/>
<path d="M295 141 c-3 -6 -21 -11 -38 -11 -41 0 -60 -13 -55 -36 2 -14 13 -19
43 -21 22 -1 32 1 23 4 -29 7 -21 19 22 33 22 7 39 18 37 24 -5 14 -24 19 -32
7z"/>
</g>
</svg>
