<?xml version="1.0" standalone="no"?>
<!DOCTYPE svg PUBLIC "-//W3C//DTD SVG 20010904//EN"
 "http://www.w3.org/TR/2001/REC-SVG-20010904/DTD/svg10.dtd">
<svg version="1.0" xmlns="http://www.w3.org/2000/svg"
 width="50.000000pt" height="50.000000pt" viewBox="0 0 50.000000 50.000000"
 preserveAspectRatio="xMidYMid meet">

<g transform="translate(0.000000,50.000000) scale(0.100000,-0.100000)"
fill="#000000" stroke="none">
<path d="M187 476 c-7 -6 -24 -17 -39 -23 -14 -6 -29 -22 -33 -34 -4 -13 -13
-29 -20 -35 -15 -15 -13 -123 2 -132 6 -4 14 -17 18 -30 3 -13 19 -28 33 -35
15 -6 30 -16 34 -21 9 -14 117 -15 131 -2 7 6 24 17 39 23 14 6 29 22 33 34 4
13 13 29 20 35 14 15 14 122 -1 132 -5 4 -15 19 -21 34 -7 14 -22 30 -35 33
-13 4 -26 12 -30 18 -9 14 -117 17 -131 3z m116 -154 c-20 -31 -41 -64 -46
-74 -10 -14 -15 -12 -54 19 -23 19 -40 40 -37 45 3 5 18 -2 33 -16 15 -14 32
-26 38 -26 6 0 28 27 48 60 20 33 41 58 46 55 5 -4 -7 -32 -28 -63z"/>
<path d="M115 128 c-9 -24 -19 -49 -22 -55 -4 -9 7 -13 36 -13 32 0 44 -5 57
-25 9 -14 20 -25 24 -25 9 0 59 117 53 124 -3 3 -18 2 -34 -1 -20 -4 -36 1
-55 16 -15 11 -30 21 -34 21 -4 0 -16 -19 -25 -42z"/>
<path d="M320 145 c-44 -32 -63 -77 -48 -110 14 -31 23 -31 44 0 13 20 25 25
55 25 22 0 39 3 39 6 0 13 -43 104 -49 104 -4 0 -22 -11 -41 -25z"/>
</g>
</svg>
