<?xml version="1.0" standalone="no"?>
<!DOCTYPE svg PUBLIC "-//W3C//DTD SVG 20010904//EN"
 "http://www.w3.org/TR/2001/REC-SVG-20010904/DTD/svg10.dtd">
<svg version="1.0" xmlns="http://www.w3.org/2000/svg"
 width="50.000000pt" height="50.000000pt" viewBox="0 0 50.000000 50.000000"
 preserveAspectRatio="xMidYMid meet">

<g transform="translate(0.000000,50.000000) scale(0.100000,-0.100000)"
fill="#000000" stroke="none">
<path d="M130 425 c0 -33 2 -35 35 -35 33 0 35 2 35 35 0 33 -2 35 -35 35 -33
0 -35 -2 -35 -35z"/>
<path d="M220 425 c0 -33 2 -35 35 -35 33 0 35 2 35 35 0 33 -2 35 -35 35 -33
0 -35 -2 -35 -35z"/>
<path d="M310 425 c0 -33 2 -35 35 -35 33 0 35 2 35 35 0 33 -2 35 -35 35 -33
0 -35 -2 -35 -35z"/>
<path d="M220 335 c0 -33 2 -35 35 -35 33 0 35 2 35 35 0 33 -2 35 -35 35 -33
0 -35 -2 -35 -35z"/>
<path d="M40 255 c0 -33 2 -35 35 -35 33 0 35 2 35 35 0 33 -2 35 -35 35 -33
0 -35 -2 -35 -35z"/>
<path d="M400 255 c0 -33 2 -35 35 -35 33 0 35 2 35 35 0 33 -2 35 -35 35 -33
0 -35 -2 -35 -35z"/>
<path d="M40 165 c0 -33 2 -35 35 -35 33 0 35 2 35 35 0 33 -2 35 -35 35 -33
0 -35 -2 -35 -35z"/>
<path d="M130 165 c0 -33 2 -35 35 -35 33 0 35 2 35 35 0 33 -2 35 -35 35 -33
0 -35 -2 -35 -35z"/>
<path d="M310 165 c0 -33 2 -35 35 -35 33 0 35 2 35 35 0 33 -2 35 -35 35 -33
0 -35 -2 -35 -35z"/>
<path d="M400 165 c0 -33 2 -35 35 -35 33 0 35 2 35 35 0 33 -2 35 -35 35 -33
0 -35 -2 -35 -35z"/>
<path d="M40 75 c0 -33 2 -35 35 -35 33 0 35 2 35 35 0 33 -2 35 -35 35 -33 0
-35 -2 -35 -35z"/>
<path d="M130 75 c0 -33 2 -35 35 -35 33 0 35 2 35 35 0 33 -2 35 -35 35 -33
0 -35 -2 -35 -35z"/>
<path d="M220 75 c0 -33 2 -35 35 -35 33 0 35 2 35 35 0 33 -2 35 -35 35 -33
0 -35 -2 -35 -35z"/>
<path d="M310 75 c0 -33 2 -35 35 -35 33 0 35 2 35 35 0 33 -2 35 -35 35 -33
0 -35 -2 -35 -35z"/>
<path d="M400 75 c0 -33 2 -35 35 -35 33 0 35 2 35 35 0 33 -2 35 -35 35 -33
0 -35 -2 -35 -35z"/>
</g>
</svg>
