<?xml version="1.0" standalone="no"?>
<!DOCTYPE svg PUBLIC "-//W3C//DTD SVG 20010904//EN"
 "http://www.w3.org/TR/2001/REC-SVG-20010904/DTD/svg10.dtd">
<svg version="1.0" xmlns="http://www.w3.org/2000/svg"
 width="50.000000pt" height="50.000000pt" viewBox="0 0 50.000000 50.000000"
 preserveAspectRatio="xMidYMid meet">

<g transform="translate(0.000000,50.000000) scale(0.100000,-0.100000)"
fill="#000000" stroke="none">
<path d="M201 421 c-23 -33 -58 -94 -77 -136 -31 -63 -36 -83 -31 -121 5 -50
27 -86 71 -118 39 -29 133 -29 172 0 44 32 66 68 71 118 5 38 0 58 -31 121
-36 77 -113 195 -126 195 -4 0 -26 -27 -49 -59z m102 -45 c53 -81 87 -161 87
-204 0 -63 -73 -132 -140 -132 -67 0 -140 69 -140 132 0 43 34 123 87 204 26
40 50 74 53 74 3 0 27 -34 53 -74z"/>
<path d="M206 318 c-57 -97 -66 -140 -41 -187 14 -28 70 -60 82 -47 3 3 4 7 2
9 -2 1 -17 9 -34 17 -59 30 -57 88 6 193 32 52 34 57 19 57 -5 0 -20 -19 -34
-42z"/>
<path d="M30 282 c0 -13 48 -33 54 -23 3 4 -6 13 -20 20 -30 13 -34 14 -34 3z"/>
<path d="M432 277 c-12 -7 -20 -16 -16 -19 8 -8 54 12 54 24 0 11 -11 10 -38
-5z"/>
<path d="M0 180 c0 -5 16 -10 35 -10 19 0 35 5 35 10 0 6 -16 10 -35 10 -19 0
-35 -4 -35 -10z"/>
<path d="M430 180 c0 -5 16 -10 35 -10 19 0 35 5 35 10 0 6 -16 10 -35 10 -19
0 -35 -4 -35 -10z"/>
<path d="M53 98 c-20 -10 -32 -28 -18 -28 12 0 55 24 55 32 0 10 -9 9 -37 -4z"/>
<path d="M410 102 c0 -8 43 -32 55 -32 15 0 1 19 -20 28 -31 14 -35 15 -35 4z"/>
</g>
</svg>
