<?xml version="1.0" standalone="no"?>
<!DOCTYPE svg PUBLIC "-//W3C//DTD SVG 20010904//EN"
 "http://www.w3.org/TR/2001/REC-SVG-20010904/DTD/svg10.dtd">
<svg version="1.0" xmlns="http://www.w3.org/2000/svg"
 width="50.000000pt" height="50.000000pt" viewBox="0 0 50.000000 50.000000"
 preserveAspectRatio="xMidYMid meet">

<g transform="translate(0.000000,50.000000) scale(0.100000,-0.100000)"
fill="#000000" stroke="none">
<path d="M184 476 c-18 -8 -35 -19 -39 -26 -8 -12 31 -60 49 -60 10 0 61 57
80 88 10 17 -49 15 -90 -2z"/>
<path d="M266 435 c-36 -44 -37 -45 -13 -45 23 0 60 -32 69 -59 2 -8 17 3 41
32 l37 45 -40 36 c-22 20 -44 36 -49 36 -5 0 -25 -20 -45 -45z"/>
<path d="M94 385 c-15 -38 -18 -93 -6 -113 6 -9 20 2 50 37 23 27 42 54 42 58
0 9 -54 53 -65 53 -3 0 -13 -16 -21 -35z"/>
<path d="M297 251 l-107 -129 26 -56 c14 -31 29 -56 34 -56 5 0 18 21 30 46
11 26 42 77 70 113 55 75 70 108 70 154 0 69 -14 62 -123 -72z"/>
<path d="M138 278 l-36 -44 36 -48 36 -49 48 54 c44 50 46 54 25 57 -26 4 -57
30 -66 55 -6 16 -12 13 -43 -25z"/>
</g>
</svg>
