<?xml version="1.0" standalone="no"?>
<!DOCTYPE svg PUBLIC "-//W3C//DTD SVG 20010904//EN"
 "http://www.w3.org/TR/2001/REC-SVG-20010904/DTD/svg10.dtd">
<svg version="1.0" xmlns="http://www.w3.org/2000/svg"
 width="50.000000pt" height="50.000000pt" viewBox="0 0 50.000000 50.000000"
 preserveAspectRatio="xMidYMid meet">

<g transform="translate(0.000000,50.000000) scale(0.100000,-0.100000)"
fill="#000000" stroke="none">
<path d="M70 250 l0 -230 180 0 180 0 0 168 0 168 -63 62 -63 62 -117 0 -117
0 0 -230z m285 150 l49 -50 -52 0 -52 0 0 50 c0 28 1 50 3 50 1 0 25 -22 52
-50z m-85 -10 c0 -6 -28 -10 -65 -10 -37 0 -65 4 -65 10 0 6 28 10 65 10 37 0
65 -4 65 -10z m0 -40 c0 -6 -28 -10 -65 -10 -37 0 -65 4 -65 10 0 6 28 10 65
10 37 0 65 -4 65 -10z m100 -40 c0 -6 -45 -10 -115 -10 -70 0 -115 4 -115 10
0 6 45 10 115 10 70 0 115 -4 115 -10z m0 -40 c0 -6 -45 -10 -115 -10 -70 0
-115 4 -115 10 0 6 45 10 115 10 70 0 115 -4 115 -10z m-120 -40 c0 -5 -25
-10 -55 -10 -30 0 -55 5 -55 10 0 6 25 10 55 10 30 0 55 -4 55 -10z m82 -32
c-2 -21 2 -27 20 -30 30 -4 46 -48 30 -83 -13 -27 -36 -31 -126 -19 l-46 7 0
43 c0 40 2 44 24 44 17 0 31 11 46 36 26 42 57 43 52 2z"/>
<path d="M286 167 c-10 -18 -16 -43 -15 -57 4 -22 9 -25 49 -25 43 0 45 1 45
30 0 25 -5 31 -30 35 -24 4 -29 10 -27 28 4 31 -2 28 -22 -11z"/>
<path d="M230 115 c0 -14 5 -25 10 -25 6 0 10 11 10 25 0 14 -4 25 -10 25 -5
0 -10 -11 -10 -25z"/>
</g>
</svg>
