<?xml version="1.0" standalone="no"?>
<!DOCTYPE svg PUBLIC "-//W3C//DTD SVG 20010904//EN"
 "http://www.w3.org/TR/2001/REC-SVG-20010904/DTD/svg10.dtd">
<svg version="1.0" xmlns="http://www.w3.org/2000/svg"
 width="64.000000pt" height="64.000000pt" viewBox="0 0 64.000000 64.000000"
 preserveAspectRatio="xMidYMid meet">

<g transform="translate(0.000000,64.000000) scale(0.100000,-0.100000)"
fill="#000000" stroke="none">
<path d="M26 615 c-25 -25 -29 -73 -24 -293 4 -202 5 -208 31 -259 15 -29 32
-53 37 -53 5 0 22 24 37 53 26 51 27 57 31 260 5 222 19 269 24 77 2 -94 6
-115 18 -115 12 0 16 19 18 95 4 113 -8 162 -43 178 -14 6 -25 18 -25 26 0 40
-73 62 -104 31z m72 -250 c3 -220 -5 -305 -27 -305 -23 0 -31 75 -31 295 0
127 3 235 7 239 4 4 16 6 28 4 19 -3 20 -10 23 -233z"/>
<path d="M212 618 c4 -10 52 -14 196 -16 l191 -2 3 -93 c2 -74 6 -92 18 -92
12 0 15 18 15 105 l0 105 -213 3 c-169 2 -213 0 -210 -10z"/>
<path d="M230 445 c0 -12 17 -15 95 -15 78 0 95 3 95 15 0 12 -17 15 -95 15
-78 0 -95 -3 -95 -15z"/>
<path d="M500 445 c0 -10 10 -15 30 -15 20 0 30 5 30 15 0 10 -10 15 -30 15
-20 0 -30 -5 -30 -15z"/>
<path d="M230 345 c0 -12 14 -15 65 -15 51 0 65 3 65 15 0 12 -14 15 -65 15
-51 0 -65 -3 -65 -15z"/>
<path d="M466 314 c-20 -21 -26 -37 -26 -69 0 -59 36 -95 95 -95 59 0 95 36
95 95 0 59 -36 95 -95 95 -32 0 -48 -6 -69 -26z m116 -21 c22 -20 23 -70 1
-95 -20 -22 -70 -23 -95 -1 -22 20 -23 70 -1 95 20 22 70 23 95 1z"/>
<path d="M230 245 c0 -12 14 -15 65 -15 51 0 65 3 65 15 0 12 -14 15 -65 15
-51 0 -65 -3 -65 -15z"/>
<path d="M180 145 c0 -12 17 -15 90 -15 73 0 90 3 90 15 0 12 -17 15 -90 15
-73 0 -90 -3 -90 -15z"/>
<path d="M450 70 c0 -64 9 -73 46 -45 26 20 51 19 84 -5 15 -11 30 -17 34 -13
3 3 6 33 6 65 0 45 -3 58 -15 58 -11 0 -15 -11 -15 -42 0 -33 -3 -39 -12 -30
-16 16 -70 16 -86 0 -9 -9 -12 -3 -12 30 0 31 -4 42 -15 42 -12 0 -15 -13 -15
-60z"/>
<path d="M130 21 c0 -5 7 -12 16 -15 20 -8 228 -8 248 0 43 16 3 24 -124 24
-77 0 -140 -4 -140 -9z"/>
</g>
</svg>
