<?xml version="1.0" standalone="no"?>
<!DOCTYPE svg PUBLIC "-//W3C//DTD SVG 20010904//EN"
 "http://www.w3.org/TR/2001/REC-SVG-20010904/DTD/svg10.dtd">
<svg version="1.0" xmlns="http://www.w3.org/2000/svg"
 width="64.000000pt" height="64.000000pt" viewBox="0 0 64.000000 64.000000"
 preserveAspectRatio="xMidYMid meet">

<g transform="translate(0.000000,64.000000) scale(0.100000,-0.100000)"
fill="#000000" stroke="none">
<path d="M254 586 c-42 -19 -48 -30 -34 -71 l12 -35 83 0 c75 0 85 2 99 22 23
32 20 45 -11 53 -14 3 -38 15 -51 26 -29 22 -55 24 -98 5z"/>
<path d="M261 451 c-58 -7 -95 -37 -108 -89 -3 -15 -23 -44 -44 -64 -62 -60
-65 -128 -8 -193 l31 -35 201 2 201 3 24 40 c19 33 22 50 19 96 -6 73 -36 127
-126 227 -22 24 -71 27 -190 13z m69 -80 c0 -5 9 -13 20 -16 11 -3 20 -14 20
-24 0 -14 -7 -16 -35 -13 -27 3 -35 1 -35 -11 0 -9 8 -18 18 -21 53 -17 80
-80 47 -108 -9 -7 -22 -19 -30 -26 -13 -11 -18 -11 -31 2 -8 9 -22 16 -30 16
-9 0 -14 7 -12 17 2 14 11 17 40 15 59 -5 59 19 0 54 -47 27 -52 59 -16 94 31
30 44 36 44 21z"/>
</g>
</svg>
