<?xml version="1.0" standalone="no"?>
<!DOCTYPE svg PUBLIC "-//W3C//DTD SVG 20010904//EN"
 "http://www.w3.org/TR/2001/REC-SVG-20010904/DTD/svg10.dtd">
<svg version="1.0" xmlns="http://www.w3.org/2000/svg"
 width="50.000000pt" height="50.000000pt" viewBox="0 0 50.000000 50.000000"
 preserveAspectRatio="xMidYMid meet">

<g transform="translate(0.000000,50.000000) scale(0.100000,-0.100000)"
fill="#000000" stroke="none">
<path d="M95 459 c-84 -93 -116 -234 -76 -339 20 -53 76 -128 87 -117 3 3 -3
31 -15 62 -23 61 -27 138 -10 182 l11 28 14 -28 c22 -41 38 -28 44 34 5 52 5
53 18 26 16 -37 15 -96 -3 -127 -8 -14 -14 -28 -15 -32 0 -17 32 -6 62 21 50
44 46 97 -14 226 -26 55 -52 101 -56 103 -5 1 -26 -16 -47 -39z"/>
<path d="M340 195 c-63 -36 -136 -72 -163 -81 -51 -17 -71 -50 -47 -79 18 -22
44 -18 78 10 16 13 88 57 161 96 111 60 132 75 129 93 -5 36 -38 28 -158 -39z
m140 37 c0 -11 -250 -145 -257 -138 -9 8 -11 7 122 80 122 66 135 72 135 58z"/>
</g>
</svg>
