<svg width="20" height="50" viewBox="0 0 20 50" fill="none" xmlns="http://www.w3.org/2000/svg">
<path d="M5.72293 1.42266C3.10175 3.14428 1.26135 6.03975 0.424801 10.0308C0.0901823 11.7524 -0.0771271 18.7955 0.0344125 28.2644C0.201722 45.7937 0.536341 47.0458 4.83061 49.237C6.8941 50.2543 7.4518 50.2543 9.51528 49.237C13.8653 47.0458 14.1442 45.872 14.3115 27.6384L14.4788 11.6742L13.0845 9.71778C11.2441 7.13534 8.67873 7.13534 6.8941 9.71778C5.49985 11.5959 5.49985 11.7524 5.49985 26.1515V40.6289H7.17295H8.84604L8.95758 26.6993C9.12489 15.0392 9.23643 12.848 9.96144 12.848C10.6864 12.848 10.798 15.0392 10.9653 27.2471C11.0768 41.1766 11.0768 41.7244 9.8499 43.5243C8.28834 45.872 6.05755 45.872 4.44023 43.4461C3.21329 41.6462 3.21329 41.2549 3.3806 25.8385L3.54791 10.1091L5.38831 7.60487C6.94987 5.41371 7.56334 5.02243 9.96144 5.02243C12.3595 5.02243 12.973 5.41371 14.5346 7.60487L16.375 10.1091L16.5423 25.369L16.7096 40.6289H18.3827H20V25.9167C20 7.3701 19.2192 4.31812 13.698 1.10963C11.0211 -0.455486 8.51142 -0.37723 5.72293 1.42266ZM13.5307 2.59649C14.5346 3.22254 16.0961 5.02243 16.9884 6.6658L18.6058 9.56127L18.7731 24.3516C18.8846 34.3684 18.7731 39.0637 18.3827 39.0637C17.9923 39.0637 17.7692 34.4466 17.7692 25.1342C17.7692 9.63952 17.3788 7.76138 13.7538 4.63115C10.1845 1.57917 5.61139 3.37905 3.26906 8.70045C2.2652 11.0481 2.15366 12.6915 2.15366 26.7776V42.3505L3.77099 44.6199C6.00178 47.6719 8.34411 47.6719 10.5749 44.6199L12.1922 42.2722L12.0807 27.2471C11.9134 13.9436 11.8018 12.1437 10.9653 11.3612C10.2403 10.7351 9.68259 10.7351 9.01335 11.3612C8.12103 12.1437 8.00949 13.8653 7.84218 25.682C7.78641 33.7423 7.50757 39.0637 7.17295 39.0637C6.83833 39.0637 6.61525 33.8989 6.61525 25.7602C6.61525 13.4741 6.72679 12.3002 7.73064 10.8916C8.34411 10.0308 9.34797 9.3265 9.96144 9.3265C10.5749 9.3265 11.5788 10.0308 12.1922 10.8916C13.2519 12.3785 13.3076 13.4741 13.3076 26.9341C13.3076 38.4377 13.1403 41.9592 12.4711 43.7591C11.523 46.2633 9.06912 48.4544 7.17295 48.4544C5.27677 48.4544 2.8229 46.2633 1.87482 43.7591C1.20558 41.9592 1.03827 38.3594 1.03827 26.6211C1.03827 18.0129 1.26135 10.8134 1.65174 9.56127C3.43637 2.98777 8.79027 -0.220719 13.5307 2.59649Z" fill="#B9121A"/>
</svg>
