<?xml version="1.0" encoding="UTF-8" standalone="no" ?>
<!DOCTYPE svg PUBLIC "-//W3C//DTD SVG 1.1//EN" "http://www.w3.org/Graphics/SVG/1.1/DTD/svg11.dtd">
<svg xmlns="http://www.w3.org/2000/svg" xmlns:xlink="http://www.w3.org/1999/xlink" version="1.1" width="500" height="500" viewBox="0 0 500 500" xml:space="preserve">
<desc>Created with Fabric.js 3.6.3</desc>
<defs>
</defs>
<rect x="0" y="0" width="100%" height="100%" fill="#ffffff"></rect>
<g transform="matrix(2.8444444444444446 0 0 2.8444444444444446 250 250)"  >
<g style=""   >
		<g transform="matrix(1 0 0 1 9.362499999999994 3.735999624200243)"  >
<path style="stroke: none; stroke-width: 1; stroke-dasharray: none; stroke-linecap: butt; stroke-dashoffset: 0; stroke-linejoin: miter; stroke-miterlimit: 4; fill: rgb(185,18,27); fill-rule: nonzero; opacity: 1;"  transform=" translate(-53.8625, -48.23599962420025)" d="M 45.442 44.321 v 10.054 l 1.638 -1.191 v -8.861 c 0 -0.323 0.264 -0.587 0.59 -0.587 h 12.365 l 2.248 -1.639 H 47.67 C 46.439 42.096 45.442 43.093 45.442 44.321 z" stroke-linecap="round" />
</g>
		<g transform="matrix(1 0 0 1 14.516000000000009 -28.877499999999998)"  >
<path style="stroke: none; stroke-width: 1; stroke-dasharray: none; stroke-linecap: butt; stroke-dashoffset: 0; stroke-linejoin: miter; stroke-miterlimit: 4; fill: rgb(185,18,27); fill-rule: nonzero; opacity: 1;"  transform=" translate(-59.016000000000005, -15.622499999999999)" d="M 47.67 23.56 h 22.691 c 1.229 0 2.229 -1.003 2.229 -2.23 V 9.919 c 0 -1.231 -1 -2.234 -2.229 -2.234 H 47.67 c -1.23 0 -2.228 1.003 -2.228 2.234 v 11.41 C 45.442 22.557 46.439 23.56 47.67 23.56 z M 47.08 19.707 l 12.211 -8.953 l 8.182 11.164 H 47.67 c -0.326 0 -0.59 -0.263 -0.59 -0.589 V 19.707 z" stroke-linecap="round" />
</g>
		<g transform="matrix(1 0 0 1 28.535999999999984 -11.534999999999997)"  >
<path style="stroke: none; stroke-width: 1; stroke-dasharray: none; stroke-linecap: butt; stroke-dashoffset: 0; stroke-linejoin: miter; stroke-miterlimit: 4; fill: rgb(185,18,27); fill-rule: nonzero; opacity: 1;"  transform=" translate(-73.03599999999999, -32.965)" d="M 84.379 25.028 H 61.686 c -1.229 0 -2.229 1.001 -2.229 2.23 V 38.67 c 0 1.228 1 2.231 2.229 2.231 h 2.236 l 2.248 -1.64 h -4.484 c -0.322 0 -0.592 -0.266 -0.592 -0.592 v -11.41 c 0 -0.328 0.27 -0.595 0.592 -0.595 h 9.265 l 9.229 12.598 h -0.087 l 1.188 1.64 h 3.1 c 1.23 0 2.234 -1.004 2.234 -2.231 V 27.259 C 86.613 26.029 85.609 25.028 84.379 25.028 z" stroke-linecap="round" />
</g>
		<g transform="matrix(1 0 0 1 -13.520000000000005 5.529999999999998)"  >
<path style="stroke: none; stroke-width: 1; stroke-dasharray: none; stroke-linecap: butt; stroke-dashoffset: 0; stroke-linejoin: miter; stroke-miterlimit: 4; fill: rgb(185,18,27); fill-rule: nonzero; opacity: 1;"  transform=" translate(-30.979999999999997, -50.03)" d="M 41.013 57.602 l 3.546 -2.584 V 44.321 c 0 -1.229 -0.998 -2.226 -2.231 -2.226 H 19.634 c -1.23 0 -2.233 0.997 -2.233 2.226 v 11.416 c 0 1.229 1.003 2.228 2.233 2.228 h 20.979 C 40.745 57.845 40.865 57.713 41.013 57.602 z M 42.328 43.734 c 0.324 0 0.593 0.264 0.593 0.587 v 11.416 c 0 0.324 -0.269 0.59 -0.593 0.59 h -7.874 l -9.226 -12.592 H 42.328 z" stroke-linecap="round" />
</g>
		<g transform="matrix(1 0 0 1 0.4985003724413062 -11.535499999999999)"  >
<path style="stroke: none; stroke-width: 1; stroke-dasharray: none; stroke-linecap: butt; stroke-dashoffset: 0; stroke-linejoin: miter; stroke-miterlimit: 4; fill: rgb(185,18,27); fill-rule: nonzero; opacity: 1;"  transform=" translate(-44.998500372441306, -32.9645)" d="M 56.344 25.028 H 33.651 c -1.232 0 -2.231 1.001 -2.231 2.23 V 38.67 c 0 1.228 0.999 2.231 2.231 2.231 h 22.692 c 1.229 0 2.234 -1.004 2.234 -2.231 V 27.259 C 58.578 26.029 57.572 25.028 56.344 25.028 z M 56.939 38.67 c 0 0.326 -0.269 0.592 -0.597 0.592 H 33.651 c -0.326 0 -0.592 -0.266 -0.592 -0.592 v -8.695 l 4.518 -3.311 h 18.767 c 0.328 0 0.596 0.267 0.596 0.595 V 38.67 L 56.939 38.67 z" stroke-linecap="round" />
</g>
		<g transform="matrix(1 0 0 1 -13.520499999999997 -28.877499999999998)"  >
<path style="stroke: none; stroke-width: 1; stroke-dasharray: none; stroke-linecap: butt; stroke-dashoffset: 0; stroke-linejoin: miter; stroke-miterlimit: 4; fill: rgb(185,18,27); fill-rule: nonzero; opacity: 1;"  transform=" translate(-30.9795, -15.622499999999999)" d="M 19.634 23.56 h 22.693 c 1.233 0 2.231 -1.003 2.231 -2.23 V 9.919 c 0 -1.231 -0.998 -2.234 -2.231 -2.234 H 19.634 c -1.23 0 -2.233 1.003 -2.233 2.234 v 11.41 C 17.401 22.557 18.404 23.56 19.634 23.56 z" stroke-linecap="round" />
</g>
		<g transform="matrix(1 0 0 1 -27.5355 -11.534999999999995)"  >
<path style="stroke: none; stroke-width: 1; stroke-dasharray: none; stroke-linecap: butt; stroke-dashoffset: 0; stroke-linejoin: miter; stroke-miterlimit: 4; fill: rgb(185,18,27); fill-rule: nonzero; opacity: 1;"  transform=" translate(-16.9645, -32.965)" d="M 30.542 38.67 V 27.259 c 0 -1.229 -1.002 -2.23 -2.235 -2.23 H 5.616 c -1.229 0 -2.229 1.001 -2.229 2.23 V 38.67 c 0 1.228 1 2.231 2.229 2.231 h 22.691 C 29.54 40.901 30.542 39.897 30.542 38.67 z M 21.406 38.514 l 7.498 -5.494 v 5.65 c 0 0.326 -0.266 0.592 -0.597 0.592 H 21.95 L 21.406 38.514 z" stroke-linecap="round" />
</g>
		<g transform="matrix(1 0 0 1 17.79223137000913 15.479769343367753)"  >
<path style="stroke: none; stroke-width: 1; stroke-dasharray: none; stroke-linecap: butt; stroke-dashoffset: 0; stroke-linejoin: miter; stroke-miterlimit: 4; fill: rgb(185,18,27); fill-rule: nonzero; opacity: 1;"  transform=" translate(-62.292231370009134, -59.97976934336775)" d="M 82.924 79.619 L 67.9 58.695 l 12.815 -9.35 c 1.134 -0.83 1.386 -2.42 0.563 -3.557 l -5.131 -7.085 c -0.396 -0.547 -0.996 -0.918 -1.67 -1.027 c -0.676 -0.104 -1.359 0.06 -1.908 0.466 L 42.707 59.916 c -1.134 0.83 -1.387 2.425 -0.559 3.564 l 5.118 7.076 c 0.404 0.553 1.004 0.924 1.678 1.03 c 0.132 0.021 0.271 0.032 0.4 0.032 c 0.537 0 1.068 -0.174 1.514 -0.499 l 13.302 -9.695 l 15.006 20.89 L 82.924 79.619 z" stroke-linecap="round" />
</g>
</g>
</g>
<g transform="matrix(0.36 0 0 0.07 249.49999999999997 249.99999999999997)"  >
<rect style="stroke: none; stroke-width: 1; stroke-dasharray: none; stroke-linecap: butt; stroke-dashoffset: 0; stroke-linejoin: miter; stroke-miterlimit: 4; fill: rgb(255,255,255); fill-rule: evenodd; opacity: 1;"  x="-393.5" y="-393.5" rx="0" ry="0" width="787" height="787" />
</g>
<g transform="matrix(1 0 0 1 250.52000000000004 251.2733333333333)" style=""  ><path fill="#000000" opacity="1" d="M-114.97-11.23L-110.61-11.23L-110.61 9.17L-115.26 9.17L-115.26 0.67Q-115.26 0.59-115.37 0.56Q-115.47 0.53-115.53 0.62L-115.53 0.62L-118.12 6.03L-121.75 6.03L-124.37 0.64Q-124.43 0.53-124.52 0.56Q-124.61 0.59-124.61 0.70L-124.61 0.70L-124.61 9.17L-129.26 9.17L-129.26-11.23L-124.93-11.23L-120.07-1.16Q-120.01-1.10-119.94-1.10Q-119.86-1.10-119.83-1.16L-119.83-1.16L-114.97-11.23Z"/><path fill="#000000" opacity="1" d="M-90.91-11.11L-85.99-11.11L-86.54-9.57Q-86.54-9.54-86.81-8.83Q-87.07-8.11-87.46-6.98Q-87.85-5.85-88.35-4.43Q-88.84-3.02-89.35-1.64Q-89.86-0.26-90.31 0.98Q-90.76 2.22-91.05 3.00L-91.05 3.00Q-91.84 5.01-92.87 6.23Q-93.91 7.45-95.10 8.09Q-96.29 8.73-97.60 8.94Q-98.91 9.14-100.25 9.14L-100.25 9.14L-101.41 9.14L-101.41 4.49L-100.25 4.49Q-98.74 4.49-97.72 4.02L-97.72 4.02L-103.13-11.11L-98.21-11.11L-94.57-0.93L-90.91-11.11Z"/><path fill="#000000" opacity="1" d="M-71.82-11.26L-64.49 9.14L-69.43 9.14L-74.44-4.77Q-74.50-4.97-74.71-4.97Q-74.93-4.97-74.99-4.77L-74.99-4.77L-80.00 9.14L-84.94 9.14L-77.61-11.26L-71.82-11.26Z"/><path fill="#000000" opacity="1" d="M-53.02-3.28L-48.68-3.28Q-47.40-3.28-46.27-2.79Q-45.13-2.29-44.28-1.45Q-43.42-0.61-42.91 0.53Q-42.40 1.66-42.40 2.94L-42.40 2.94Q-42.40 4.22-42.89 5.37Q-43.39 6.52-44.23 7.37Q-45.08 8.21-46.21 8.70Q-47.35 9.20-48.66 9.20L-48.66 9.20L-57.94 9.20L-57.94-11.29L-53.31-11.29L-53.31-3.58Q-53.31-3.28-53.02-3.28L-53.02-3.28ZM-48.66 1.37L-53.02 1.37Q-53.31 1.37-53.31 1.63L-53.31 1.63L-53.31 4.25Q-53.31 4.54-53.02 4.54L-53.02 4.54L-48.66 4.54Q-47.99 4.54-47.51 4.06Q-47.03 3.58-47.05 2.91L-47.05 2.91Q-47.05 2.24-47.52 1.81Q-47.99 1.37-48.66 1.37L-48.66 1.37Z"/><path fill="#000000" opacity="1" d="M-35.85-11.23L-17.84-11.23L-17.84-6.57L-24.30-6.57Q-24.50-6.57-24.50-6.37L-24.50-6.37L-24.50 9.17L-29.16 9.17L-29.16-6.37Q-29.16-6.57-29.36-6.57L-29.36-6.57L-35.85-6.57L-35.85-11.23Z"/><path fill="#000000" opacity="1" d="M-11.99-11.23L-7.33-11.23L-7.33-0.58Q-7.33-0.52-7.30-0.51Q-7.27-0.49-7.25-0.55L-7.25-0.55L-0.03-11.23L4.19-11.23L4.19 9.17L-0.47 9.17L-0.47-2.09Q-0.47-2.15-0.49-2.16Q-0.52-2.18-0.55-2.12L-0.55-2.12L-7.86 9.17L-11.99 9.17L-11.99-11.23Z"/><path fill="#000000" opacity="1" d="M16.12-3.40L21.82-3.40Q23.11-3.40 24.25-2.91Q25.40-2.41 26.26-1.57Q27.12-0.72 27.62 0.41Q28.11 1.55 28.11 2.86L28.11 2.86Q28.11 4.14 27.63 5.29Q27.15 6.44 26.29 7.29Q25.43 8.15 24.30 8.65Q23.16 9.14 21.88 9.14L21.88 9.14L11.20 9.14L11.20-11.20L26.51-11.20L26.51-6.46L16.12-6.46Q15.86-6.46 15.86-6.17L15.86-6.17L15.86-3.66Q15.86-3.40 16.12-3.40L16.12-3.40ZM21.85 1.26L16.12 1.26Q15.86 1.26 15.86 1.55L15.86 1.55L15.86 4.19Q15.86 4.46 16.12 4.46L16.12 4.46L21.88 4.46Q22.55 4.46 23.02 3.98Q23.48 3.50 23.45 2.83L23.45 2.83Q23.45 2.16 22.99 1.71Q22.52 1.26 21.85 1.26L21.85 1.26Z"/><path fill="#000000" opacity="1" d="M45.80-11.26L53.14 9.14L48.19 9.14L43.18-4.77Q43.13-4.97 42.91-4.97Q42.69-4.97 42.63-4.77L42.63-4.77L37.63 9.14L32.68 9.14L40.01-11.26L45.80-11.26Z"/><path fill="#000000" opacity="1" d="M72.98-11.23L80.32 9.17L75.37 9.17L74.61 7.10Q74.55 6.90 74.35 6.90L74.35 6.90L65.56 6.90Q65.39 6.90 65.30 7.10L65.30 7.10L64.57 9.17L59.63 9.17L66.96-11.23L72.98-11.23ZM69.69-5.12L67.19 1.87Q67.13 2.01 67.22 2.13Q67.31 2.24 67.45 2.24L67.45 2.24L72.49 2.24Q72.87 2.24 72.75 1.87L72.75 1.87L70.25-5.12Q70.16-5.32 69.96-5.32Q69.75-5.32 69.69-5.12L69.69-5.12Z"/><path fill="#000000" opacity="1" d="M100.86 1.37L102.49 6.26L101.82 6.78Q98.85 9.08 95.01 9.08L95.01 9.08Q92.89 9.08 90.95 8.33Q89.02 7.57 87.50 6.14L87.50 6.14Q85.93 4.66 85.09 2.74Q84.24 0.82 84.24-1.31L84.24-1.31Q84.24-3.43 85.09-5.34Q85.93-7.24 87.50-8.73L87.50-8.73Q89.02-10.18 90.95-10.94Q92.89-11.69 95.01-11.69L95.01-11.69Q98.82-11.69 101.79-9.40L101.79-9.40L102.46-8.90L100.83-4.01L99.52-5.23Q98.62-6.08 97.47-6.51Q96.32-6.95 95.01-6.95L95.01-6.95Q93.70-6.95 92.55-6.50Q91.40-6.05 90.50-5.20L90.50-5.20Q88.75-3.55 88.75-1.31L88.75-1.31Q88.75-0.20 89.21 0.80Q89.66 1.81 90.50 2.59L90.50 2.59Q91.40 3.44 92.55 3.89Q93.70 4.34 95.01 4.34L95.01 4.34Q96.32 4.34 97.48 3.89Q98.65 3.44 99.55 2.59L99.55 2.59L100.86 1.37Z"/><path fill="#000000" opacity="1" d="M109.36-11.23L127.37-11.23L127.37-6.57L120.91-6.57Q120.71-6.57 120.71-6.37L120.71-6.37L120.71 9.17L116.05 9.17L116.05-6.37Q116.05-6.57 115.85-6.57L115.85-6.57L109.36-6.57L109.36-11.23Z"/></g></svg>