<svg width="877" height="723" viewBox="0 0 877 723" fill="none" xmlns="http://www.w3.org/2000/svg">
<path d="M189.451 0.958895C184.117 2.1589 179.184 5.62556 175.451 10.8256C172.651 14.4256 172.651 15.8922 172.651 76.8256V139.092L175.984 144.026C177.851 146.826 181.717 150.159 184.784 151.626C189.984 154.159 193.184 154.292 303.984 154.292H417.717L423.451 151.359C427.984 149.226 430.117 146.959 432.651 141.759L435.984 135.092V77.6256C435.984 17.4922 435.717 14.0256 430.117 7.89223C422.917 -0.107772 429.717 0.292228 306.651 0.0255616C244.651 -0.107772 191.984 0.292228 189.451 0.958895Z" fill="#B9121A"/>
<path d="M571.984 0.958814C489.051 1.49215 457.317 2.02548 455.317 3.22548C450.651 5.89215 446.917 10.8255 445.451 16.2921C444.517 19.7588 443.984 41.4921 443.984 78.0255C443.984 125.759 444.251 135.092 445.984 139.225C448.651 145.625 451.451 148.692 457.717 151.759C462.517 154.292 466.651 154.292 577.717 154.025C688.784 153.625 692.784 153.492 696.784 151.092C699.051 149.625 702.384 146.425 704.117 143.759L707.317 139.092V76.9588V14.6921L703.584 9.89215C699.451 4.42548 696.117 2.29215 689.984 1.09215C687.851 0.692147 634.651 0.558814 571.984 0.958814ZM602.651 61.8922C615.451 79.3588 631.584 101.359 638.651 110.959C654.384 132.292 657.317 136.425 657.317 137.492C657.317 137.892 613.584 138.292 559.984 138.292C448.784 138.292 459.984 139.759 459.984 125.225C459.984 118.825 460.517 116.959 463.051 114.692C464.651 113.225 483.451 99.2255 504.651 83.6255C525.984 68.0255 545.851 53.4921 548.784 51.0921C551.851 48.8255 555.717 46.0255 557.317 44.9588C558.917 43.8921 564.117 40.1588 568.917 36.5588C573.717 33.0921 578.117 30.2921 578.517 30.2921C579.051 30.2921 589.851 44.5588 602.651 61.8922Z" fill="#B9121A"/>
<path d="M48.5175 170.826C46.2508 171.892 42.6508 174.959 40.5175 177.759L36.6508 182.692L36.2508 225.226L35.8508 267.626H144.651H253.451L268.384 256.826L283.318 246.026L283.718 256.959L284.118 267.759L291.718 267.359L299.318 266.959V225.492V184.159L295.584 178.426C288.918 168.426 296.118 168.959 167.718 168.959C73.8508 169.092 51.8508 169.359 48.5175 170.826Z" fill="#B9121A"/>
<path d="M320.651 170.559C319.184 171.359 316.117 174.026 313.717 176.559C308.251 182.426 307.717 187.626 308.251 232.292L308.651 266.959L316.384 267.359L323.984 267.759V241.892V215.892L346.251 199.759L368.517 183.626H459.717C519.984 183.626 551.717 184.159 553.451 184.959C555.851 186.292 555.984 188.159 555.984 226.959V267.626H564.117H572.117L571.717 225.226L571.317 182.692L567.584 177.892C560.384 168.426 568.784 168.959 439.717 168.959C356.517 169.092 322.517 169.492 320.651 170.559Z" fill="#B9121A"/>
<path d="M593.584 170.426C589.984 171.759 586.917 174.559 583.717 179.492C581.584 182.559 581.317 187.226 581.317 225.226V267.626H588.651H595.984V227.759C595.984 193.092 596.251 187.492 598.117 185.759C599.984 183.892 605.717 183.626 646.384 183.892L692.517 184.292L703.584 199.626C709.717 208.026 723.317 226.692 733.717 240.959L752.784 266.959L798.384 267.359L844.117 267.626L843.717 225.226L843.317 182.692L839.451 177.759C832.384 168.559 839.051 168.959 711.717 169.092C644.384 169.092 595.317 169.626 593.584 170.426Z" fill="#B9121A"/>
<path d="M755.984 328.426C728.784 335.892 720.517 370.559 741.584 388.292C752.651 397.626 769.051 399.759 782.117 393.759C785.851 392.026 789.451 389.892 789.984 388.959C790.517 388.026 789.851 383.759 788.651 379.492C786.251 371.626 786.251 371.626 783.451 374.159C775.451 381.359 763.451 383.092 754.651 378.159C748.384 374.559 745.317 369.359 745.317 362.026C745.317 352.826 751.184 346.026 761.051 343.892C768.251 342.292 774.784 343.759 780.651 348.159C783.051 350.026 785.451 351.626 785.851 351.626C786.251 351.626 787.584 348.292 788.784 344.426C791.451 335.892 790.917 334.559 782.251 330.426C774.384 326.692 764.784 325.892 755.984 328.426Z" fill="black"/>
<path d="M0.917402 328.559C-0.282598 329.626 -0.282598 392.026 0.784069 394.826C1.45074 396.426 3.45074 396.959 8.78407 396.959H15.8507L16.2507 382.559L16.6507 368.292L21.3174 377.226L25.8507 386.292H32.2507H38.6507L43.1841 377.226L47.8507 368.292L47.9841 382.559V396.959H55.9841H63.9841V362.292V327.626H56.7841H49.4507L40.9174 345.226L32.3841 362.959L23.9841 345.226L15.5841 327.626H8.65074C4.9174 327.626 1.3174 328.026 0.917402 328.559Z" fill="black"/>
<path d="M90.6508 329.226C90.6508 331.092 91.3174 333.092 101.184 360.292C104.917 370.426 107.984 379.226 107.984 379.759C107.984 380.292 105.317 381.092 101.984 381.492L95.9841 382.426V389.759V396.959H103.051C116.784 396.826 125.851 389.492 132.117 373.092C139.317 354.159 147.584 329.092 146.917 328.426C145.851 327.226 134.251 327.492 132.517 328.692C131.717 329.226 129.317 334.292 127.317 340.026C120.517 359.226 118.917 363.092 118.117 360.959C117.717 359.892 115.184 352.692 112.517 344.959C109.851 337.226 107.051 330.159 106.251 329.226C105.584 328.292 101.984 327.626 97.8508 327.626C92.9174 327.626 90.6508 328.159 90.6508 329.226Z" fill="black"/>
<path d="M165.184 360.026C158.784 377.759 153.184 393.359 152.651 394.559C151.851 396.692 152.651 396.959 160.384 396.959H169.051L177.451 372.959C183.984 354.559 186.251 349.359 187.451 350.692C188.251 351.492 191.717 360.426 195.184 370.292C205.317 400.159 203.184 396.959 213.051 396.959C220.651 396.959 221.451 396.692 220.651 394.559C219.717 392.159 205.184 351.892 199.851 336.559L196.651 327.626H186.651H176.651L165.184 360.026Z" fill="black"/>
<path d="M243.984 362.292V396.959H263.184C280.784 396.959 282.651 396.692 286.784 393.892C289.317 392.292 292.784 388.026 294.517 384.426C297.451 378.426 297.584 377.492 296.117 371.759C293.051 360.426 286.117 355.759 270.384 354.692L259.984 353.892V340.826V327.626H251.984H243.984V362.292ZM277.851 371.626C281.451 372.959 282.251 376.026 279.984 379.626C279.051 381.092 276.251 381.626 269.717 381.626H260.651L260.251 375.892L259.851 370.292H267.184C271.184 370.292 275.984 370.826 277.851 371.626Z" fill="black"/>
<path d="M319.984 335.626V343.626H331.317H342.651V370.292V396.959H350.651H358.651V370.292V343.626H369.984H381.317V335.626V327.626H350.651H319.984V335.626Z" fill="black"/>
<path d="M401.317 362.292V396.959H408.384H415.317L425.184 381.226C441.317 355.892 439.984 356.159 439.984 378.159V396.959H447.984H455.984V362.292V327.626H448.917H441.851L430.117 344.959C423.717 354.426 417.851 362.292 417.184 362.292C416.384 362.292 416.251 357.092 416.784 348.426C417.317 340.826 417.317 333.092 416.784 331.092C415.984 327.892 415.451 327.626 408.651 327.626H401.317V362.292Z" fill="black"/>
<path d="M479.984 362.292V396.959H501.717C526.117 396.959 529.051 396.026 534.651 386.959C537.051 382.959 537.584 380.826 537.051 374.159C536.651 367.759 535.717 365.492 532.517 362.159C526.784 355.892 521.584 354.292 507.984 354.292H495.984V348.959V343.626H513.984H531.984V335.626V327.626H505.984H479.984V362.292ZM521.051 375.359C521.451 378.959 520.917 379.892 517.984 380.959C514.117 382.426 503.717 382.692 499.051 381.492C496.517 380.826 495.984 379.759 495.984 375.359V370.159L508.384 370.559L520.651 370.959L521.051 375.359Z" fill="black"/>
<path d="M577.451 330.692C571.851 345.492 554.651 394.292 554.651 395.492C554.651 396.426 557.451 396.959 562.517 396.959H570.384L578.651 373.892C583.184 361.359 587.317 350.426 587.851 349.892C588.517 349.226 591.451 355.892 594.517 364.559C597.584 373.226 601.451 384.026 603.051 388.559L605.984 396.959H614.251C618.917 396.959 622.651 396.692 622.651 396.426C622.651 396.026 621.984 394.159 621.184 392.026C618.384 384.959 601.051 336.292 599.851 331.892L598.517 327.626H588.517C579.317 327.626 578.517 327.892 577.451 330.692Z" fill="black"/>
<path d="M669.451 330.559C659.184 358.692 646.651 394.159 646.651 395.359C646.651 396.426 649.451 396.959 654.651 396.959C661.984 396.959 662.651 396.692 663.451 393.626C664.251 390.292 664.384 390.292 680.117 390.292C695.851 390.292 696.117 390.292 697.584 393.626C698.917 396.692 699.851 396.959 707.451 396.959H715.984L714.517 393.226C713.717 391.226 708.917 377.892 703.851 363.626C698.651 349.359 693.717 335.492 692.784 332.959L690.917 328.292L680.784 327.892C671.184 327.492 670.517 327.759 669.451 330.559ZM686.117 360.959C688.384 367.626 689.851 373.226 689.584 373.626C688.117 375.092 671.984 374.292 671.984 372.692C671.984 369.092 679.317 348.959 680.651 348.959C681.317 348.959 683.851 354.426 686.117 360.959Z" fill="black"/>
<path d="M815.184 329.492C814.784 330.426 814.651 333.892 814.918 337.092L815.318 342.959L826.651 343.626L837.984 344.292L838.384 370.559L838.651 396.959H845.984H853.318L853.584 370.559L853.984 344.292L864.918 343.892L875.718 343.492L876.251 335.626L876.651 327.626H846.251C821.584 327.626 815.718 328.026 815.184 329.492Z" fill="black"/>
<path d="M171.984 463.226C172.117 471.492 175.851 479.759 181.451 483.759L185.984 486.959L291.851 487.359C393.051 487.626 397.851 487.626 400.517 485.226C402.117 483.892 410.651 477.492 419.717 470.959C428.651 464.426 435.984 458.692 435.984 458.026C435.984 457.492 432.384 456.959 427.984 456.959H419.984V462.826C419.984 472.959 419.984 472.959 375.717 472.959H337.451L331.851 464.959L326.251 456.959H249.184H171.984V463.226Z" fill="#B9121A"/>
<path d="M469.851 469.626C460.384 476.559 445.717 487.226 437.317 493.226C417.584 507.359 413.717 510.826 410.384 517.359C406.784 524.559 407.584 533.492 412.651 541.226C414.651 544.426 427.184 561.892 440.384 580.026C467.184 617.092 470.251 620.026 481.717 620.026C485.584 620.026 490.517 619.092 492.651 617.892C494.917 616.826 509.851 606.159 525.984 594.426C551.451 575.759 568.384 563.359 591.051 546.959C594.117 544.692 602.651 538.426 609.851 533.092C617.184 527.626 623.984 523.226 625.051 523.092C627.317 522.959 632.384 529.892 700.117 624.292C720.651 652.826 744.784 686.426 753.717 698.826C762.651 711.226 770.384 722.026 770.784 722.692C771.851 724.159 806.651 700.292 806.651 698.159C806.651 697.359 799.717 687.092 791.051 675.226C782.517 663.359 773.451 650.559 770.917 646.959C766.384 640.559 729.984 590.026 720.117 576.426C717.451 572.692 714.384 568.426 713.317 566.826C710.117 562.026 682.917 524.159 672.384 509.759C667.051 502.426 662.651 496.026 662.651 495.492C662.651 494.959 668.517 490.159 675.717 485.092C682.784 479.892 693.717 472.026 699.984 467.492C706.251 463.092 711.851 458.826 712.517 458.159C713.317 457.492 667.984 456.959 600.517 456.959H487.184L469.851 469.626Z" fill="#B9121A"/>
</svg>
